 <svg version="1.0" xmlns="http://www.w3.org/2000/svg"  width="1200.000000pt" height="1200.000000pt" viewBox="0 0 1200.000000 1200.000000"  preserveAspectRatio="xMidYMid meet">  <g transform="translate(0.000000,1200.000000) scale(0.100000,-0.100000)" fill="#000000" stroke="none"> <path d="M5655 11839 c-115 -4 -230 -12 -255 -18 -25 -6 -74 -10 -110 -11 -36 0 -92 -7 -125 -15 -33 -8 -78 -14 -101 -15 -22 0 -63 -7 -90 -15 -27 -8 -66 -15 -86 -15 -20 0 -49 -5 -65 -11 -15 -6 -50 -14 -78 -19 -51 -7 -106 -20 -205 -47 -30 -8 -80 -21 -110 -29 -153 -42 -256 -73 -298 -90 -18 -8 -40 -14 -48 -14 -9 0 -28 -6 -42 -14 -15 -8 -45 -21 -67 -29 -99 -37 -131 -50 -305 -123 -167 -71 -404 -185 -535 -259 -247 -139 -542 -331 -665 -432 -8 -7 -29 -23 -46 -35 -55 -40 -212 -168 -243 -199 -9 -8 -63 -56 -121 -106 -118 -103 -352 -337 -455 -458 -38 -44 -74 -85 -80 -91 -28 -30 -157 -189 -193 -238 -12 -17 -28 -38 -35 -46 -103 -126 -304 -435 -437 -675 -106 -190 -275 -556 -345 -745 -31 -85 -48 -127 -61 -152 -8 -14 -14 -33 -14 -42 0 -8 -6 -30 -14 -48 -17 -42 -45 -134 -90 -300 -51 -188 -67 -252 -76 -308 -4 -25 -12 -65 -18 -90 -18 -74 -33 -160 -43 -240 -4 -41 -13 -93 -19 -115 -5 -22 -10 -64 -10 -93 0 -28 -7 -98 -16 -155 -23 -148 -23 -936 0 -1084 9 -57 16 -127 16 -155 0 -29 5 -71 10 -93 6 -22 15 -74 19 -115 10 -80 25 -166 43 -240 6 -25 14 -65 18 -90 7 -45 20 -99 46 -197 65 -245 99 -360 120 -411 8 -18 14 -40 14 -48 0 -9 6 -28 14 -42 13 -25 21 -46 60 -149 75 -202 240 -557 346 -748 133 -240 334 -549 437 -675 7 -8 23 -29 35 -46 36 -49 165 -208 193 -238 6 -6 42 -47 80 -91 103 -121 337 -355 455 -458 58 -50 112 -98 121 -106 31 -31 188 -159 243 -199 17 -12 38 -28 46 -35 121 -100 435 -305 655 -427 201 -111 562 -279 768 -356 103 -39 124 -47 149 -60 14 -8 33 -14 42 -14 8 0 30 -6 48 -14 51 -21 200 -65 413 -121 103 -27 151 -38 200 -45 28 -5 63 -13 78 -19 16 -6 45 -11 65 -11 20 0 59 -7 86 -15 27 -8 68 -15 90 -15 23 -1 68 -7 101 -15 33 -8 87 -15 120 -15 33 0 98 -7 145 -16 69 -13 171 -16 545 -16 374 0 476 3 545 16 47 9 112 16 145 16 33 0 87 7 120 15 33 8 78 14 101 15 22 0 63 7 90 15 27 8 66 15 86 15 20 0 49 5 65 11 15 6 51 14 78 19 61 9 120 23 313 76 166 45 258 73 300 90 18 8 40 14 48 14 9 0 28 6 42 14 25 13 67 30 152 61 193 71 565 244 765 355 176 98 494 301 600 384 22 17 45 34 50 38 6 4 34 27 64 50 30 24 77 61 105 83 53 41 97 79 125 106 9 8 63 56 121 106 157 136 366 351 545 562 11 13 27 31 35 39 8 8 33 39 55 67 22 29 59 76 83 106 23 30 46 59 50 64 4 6 21 28 38 50 83 106 286 424 384 600 111 201 279 562 356 768 39 103 47 124 60 149 8 14 14 33 14 42 0 8 6 30 14 48 21 51 55 166 120 411 26 98 39 152 46 197 4 25 12 65 18 90 18 74 33 160 43 240 4 41 13 93 19 115 5 22 10 64 10 93 0 28 7 98 16 155 23 148 23 936 0 1084 -9 57 -16 127 -16 155 0 29 -5 71 -10 93 -6 22 -15 74 -19 115 -10 80 -25 166 -43 240 -6 25 -14 65 -18 90 -7 46 -21 103 -47 200 -8 30 -21 78 -28 105 -32 122 -74 262 -91 303 -8 18 -14 40 -14 48 0 9 -6 28 -14 42 -13 25 -30 67 -61 152 -70 189 -249 576 -350 755 -139 247 -331 542 -432 665 -7 8 -23 29 -35 46 -36 49 -165 208 -193 238 -6 6 -42 47 -80 91 -103 121 -337 355 -455 458 -58 50 -112 98 -121 106 -28 27 -72 65 -125 106 -28 22 -75 59 -105 83 -30 23 -58 46 -64 50 -5 4 -28 21 -50 38 -106 83 -424 286 -600 384 -201 111 -562 279 -767 356 -104 39 -125 47 -150 60 -14 8 -33 14 -42 14 -8 0 -30 6 -48 14 -41 17 -174 57 -305 92 -29 8 -77 20 -105 28 -101 27 -153 39 -203 46 -27 5 -63 13 -78 19 -16 6 -45 11 -65 11 -20 0 -59 7 -86 15 -27 8 -68 15 -90 15 -23 1 -68 7 -101 15 -33 8 -86 15 -118 15 -31 0 -99 6 -150 14 -115 18 -577 26 -862 15z m622 -349 c383 -21 803 -87 1113 -175 25 -7 74 -21 110 -30 67 -19 336 -105 380 -123 14 -5 45 -18 70 -27 25 -10 54 -21 65 -26 11 -4 65 -27 120 -49 124 -52 427 -200 520 -255 39 -22 77 -44 85 -48 8 -4 24 -13 35 -20 181 -113 442 -290 535 -363 25 -19 52 -41 60 -47 296 -228 699 -631 927 -927 6 -8 28 -35 47 -60 58 -73 236 -333 316 -460 55 -88 59 -94 66 -110 4 -8 17 -31 29 -50 97 -155 260 -504 367 -785 26 -67 108 -313 118 -350 4 -16 18 -66 30 -110 70 -252 117 -490 160 -810 18 -128 40 -497 40 -660 0 -163 -22 -532 -40 -660 -43 -320 -90 -558 -160 -810 -12 -44 -26 -93 -30 -110 -10 -40 -94 -286 -120 -355 -12 -30 -25 -66 -30 -80 -9 -28 -91 -218 -139 -322 -17 -37 -31 -73 -31 -79 0 -7 -6 -20 -14 -28 -8 -9 -40 -65 -71 -126 -32 -60 -68 -126 -80 -145 -12 -19 -25 -42 -29 -50 -4 -8 -12 -24 -19 -35 -113 -181 -290 -442 -363 -535 -19 -25 -41 -52 -47 -60 -228 -296 -631 -699 -927 -927 -8 -6 -35 -28 -60 -47 -73 -58 -333 -236 -460 -316 -87 -55 -94 -59 -110 -67 -8 -4 -46 -26 -85 -48 -93 -55 -396 -203 -520 -255 -55 -22 -109 -45 -120 -49 -11 -5 -40 -16 -65 -26 -25 -9 -56 -21 -69 -26 -47 -19 -318 -106 -381 -124 -36 -9 -85 -23 -110 -30 -394 -111 -958 -185 -1415 -185 -457 0 -1021 74 -1415 185 -25 7 -74 21 -110 30 -63 18 -334 105 -381 124 -13 5 -44 17 -69 26 -25 10 -54 21 -65 26 -11 4 -65 27 -120 49 -124 52 -427 200 -520 255 -38 22 -77 44 -85 48 -8 4 -24 13 -35 20 -181 113 -442 290 -535 363 -25 19 -52 41 -60 47 -296 228 -699 631 -927 927 -6 8 -28 35 -47 60 -58 73 -236 333 -316 460 -55 87 -59 94 -67 110 -4 8 -26 47 -48 85 -78 132 -281 561 -315 665 -5 14 -18 50 -30 80 -26 69 -110 315 -120 355 -4 17 -18 66 -30 110 -70 252 -117 490 -160 810 -18 128 -40 497 -40 660 0 163 22 532 40 660 43 320 90 558 160 810 12 44 26 94 30 110 10 37 92 283 118 350 107 281 270 630 367 785 12 19 25 42 29 50 4 8 12 24 19 35 113 181 290 442 363 535 19 25 41 52 47 60 228 296 631 699 927 927 8 6 35 28 60 47 73 58 333 236 460 316 87 55 94 59 110 67 8 4 47 26 85 48 93 55 396 203 520 255 55 22 109 45 120 49 11 5 40 16 65 26 25 9 56 22 70 27 40 16 292 99 325 108 17 4 66 18 110 30 253 70 491 117 815 161 243 33 662 46 957 29z"/> <path d="M5480 11099 c-495 -51 -875 -139 -1319 -304 -117 -43 -153 -58 -296 -125 -33 -15 -68 -30 -77 -34 -19 -6 -25 -52 -9 -58 10 -3 391 -375 1456 -1420 121 -118 330 -323 465 -455 183 -180 249 -239 262 -234 26 9 2188 2146 2188 2162 0 4 -28 20 -62 37 -312 150 -704 277 -1100 356 -159 32 -367 61 -572 81 -225 21 -704 18 -936 -6z"/> <path d="M8730 10301 c0 -5 24 -83 54 -173 30 -89 96 -291 146 -448 99 -305 191 -583 225 -680 7 -19 20 -62 30 -95 9 -33 23 -75 31 -93 8 -18 14 -39 14 -47 0 -8 6 -29 14 -47 17 -42 35 -94 46 -133 5 -16 14 -46 21 -65 6 -19 17 -51 24 -70 7 -19 20 -62 30 -95 9 -33 23 -76 30 -95 31 -88 37 -107 46 -143 5 -21 13 -45 18 -55 5 -9 16 -44 26 -77 9 -33 23 -76 30 -95 29 -82 37 -107 45 -135 11 -39 29 -91 46 -133 8 -18 14 -41 14 -52 0 -11 6 -34 14 -52 17 -42 35 -94 46 -133 8 -29 18 -58 45 -135 7 -19 27 -82 45 -140 18 -58 38 -121 45 -140 30 -84 37 -107 46 -143 5 -21 13 -45 18 -55 5 -9 17 -44 27 -77 10 -33 24 -71 31 -85 7 -14 13 -33 13 -42 0 -10 6 -32 14 -50 17 -42 35 -94 46 -133 8 -28 16 -53 45 -135 7 -19 21 -62 30 -95 10 -33 21 -68 26 -77 5 -10 13 -34 18 -55 9 -36 15 -55 46 -143 7 -19 21 -62 30 -95 10 -33 23 -76 30 -95 7 -19 18 -51 24 -70 7 -19 16 -48 21 -65 11 -39 29 -91 46 -133 8 -18 14 -39 14 -47 0 -8 6 -29 14 -47 8 -18 22 -60 31 -93 10 -33 23 -76 30 -95 7 -19 18 -51 24 -70 7 -19 16 -48 21 -65 4 -16 12 -41 18 -55 5 -14 18 -52 27 -85 10 -33 23 -76 30 -95 7 -19 18 -51 24 -70 7 -19 16 -48 21 -65 5 -16 14 -46 21 -65 6 -19 17 -51 24 -70 7 -19 20 -62 30 -95 9 -33 21 -71 27 -85 5 -13 19 -51 30 -85 11 -33 24 -64 29 -69 17 -18 88 183 183 519 62 215 120 557 151 879 32 334 17 810 -35 1181 -31 212 -76 440 -116 580 -81 286 -164 530 -230 674 -87 190 -200 419 -250 506 -19 33 -39 69 -45 80 -10 21 -14 28 -69 115 -117 186 -338 493 -411 572 -19 20 -59 65 -89 99 -176 203 -277 302 -604 593 -83 73 -466 346 -487 346 -5 0 -9 -4 -9 -9z"/> <path d="M3055 10213 c-94 -68 -310 -230 -331 -249 -12 -11 -57 -50 -100 -89 -224 -200 -346 -322 -504 -504 -30 -34 -70 -79 -89 -99 -73 -79 -294 -386 -411 -572 -55 -87 -59 -94 -69 -115 -6 -11 -26 -47 -45 -80 -50 -87 -163 -316 -250 -506 -86 -189 -205 -557 -266 -824 -11 -49 -23 -99 -26 -110 -61 -254 -104 -693 -104 -1060 0 -367 43 -806 104 -1060 3 -11 15 -60 26 -110 38 -166 92 -354 147 -510 19 -55 40 -115 46 -132 6 -18 16 -33 22 -33 7 0 21 30 33 68 27 86 41 129 58 170 8 18 14 41 14 52 0 11 6 34 14 52 21 51 37 99 46 138 9 39 25 87 46 138 8 18 14 41 14 52 0 11 6 34 14 52 8 18 22 60 31 93 17 56 23 77 55 165 6 19 15 51 20 70 4 19 12 46 17 60 6 14 18 52 28 85 9 33 23 76 30 95 7 19 20 62 30 95 9 33 23 76 30 95 7 19 20 62 30 95 9 33 23 76 30 95 7 19 20 62 30 95 37 126 48 161 61 193 8 18 14 40 14 50 0 9 7 30 15 46 8 15 15 37 15 47 0 10 6 33 14 51 7 18 21 60 31 93 9 33 23 76 30 95 7 19 20 62 30 95 9 33 23 76 31 95 7 19 21 60 30 90 9 30 23 70 30 88 8 18 14 41 14 51 0 10 7 32 15 47 8 16 15 37 15 46 0 10 6 32 14 50 7 18 21 60 31 93 9 33 23 76 30 95 7 19 20 62 30 95 9 33 23 75 31 93 8 18 14 44 14 57 0 13 4 26 9 30 5 3 12 20 16 38 7 34 30 109 50 167 7 19 21 62 30 95 10 33 23 76 30 95 7 19 21 62 30 95 10 33 23 76 30 95 7 19 21 62 30 95 10 33 22 71 28 85 5 14 13 41 17 60 9 38 25 86 46 138 8 18 14 41 14 52 0 11 6 34 14 52 21 51 37 99 46 138 9 39 25 87 46 138 8 18 14 41 14 52 0 11 6 34 14 52 21 51 37 99 46 138 8 33 13 51 45 140 7 19 28 82 45 140 18 58 45 143 60 190 47 147 89 281 121 385 17 55 44 139 60 187 16 47 29 89 29 92 0 16 -40 1 -85 -31z"/> <path d="M3552 10198 c-5 -7 -15 -32 -21 -56 -7 -23 -22 -75 -35 -115 -13 -39 -38 -119 -56 -177 -17 -58 -38 -123 -45 -145 -8 -22 -35 -107 -60 -190 -26 -82 -53 -168 -60 -190 -8 -22 -28 -87 -46 -145 -17 -58 -44 -143 -59 -190 -15 -47 -42 -132 -60 -190 -18 -58 -45 -143 -60 -190 -15 -47 -42 -132 -60 -190 -17 -58 -38 -123 -45 -145 -8 -22 -35 -107 -60 -190 -25 -82 -52 -166 -59 -185 -28 -76 -38 -106 -46 -140 -9 -39 -25 -87 -46 -138 -8 -18 -14 -41 -14 -52 0 -11 -6 -34 -14 -52 -7 -18 -21 -60 -31 -93 -9 -33 -23 -76 -30 -95 -7 -19 -20 -62 -30 -95 -9 -33 -23 -76 -30 -95 -7 -19 -20 -62 -30 -95 -9 -33 -23 -76 -30 -95 -20 -58 -43 -133 -50 -167 -4 -18 -11 -35 -16 -38 -5 -4 -9 -17 -9 -30 0 -13 -6 -39 -14 -57 -7 -18 -21 -60 -31 -93 -9 -33 -23 -76 -30 -95 -7 -19 -20 -62 -30 -95 -9 -33 -23 -75 -31 -93 -8 -18 -14 -40 -14 -50 0 -9 -7 -30 -15 -46 -8 -15 -15 -37 -15 -47 0 -10 -6 -33 -14 -51 -7 -18 -21 -60 -31 -93 -9 -33 -22 -71 -27 -85 -6 -14 -14 -41 -18 -60 -5 -19 -14 -51 -20 -70 -32 -88 -38 -109 -55 -165 -9 -33 -23 -75 -31 -93 -8 -18 -14 -41 -14 -52 0 -11 -6 -34 -14 -52 -30 -70 -47 -120 -91 -273 -10 -33 -23 -76 -30 -95 -7 -19 -21 -62 -30 -95 -10 -33 -23 -76 -30 -95 -7 -19 -21 -62 -30 -95 -10 -33 -23 -76 -30 -95 -7 -19 -21 -62 -30 -95 -10 -33 -24 -75 -31 -93 -8 -18 -14 -41 -14 -51 0 -10 -7 -32 -15 -47 -8 -16 -15 -37 -15 -46 0 -10 -7 -33 -16 -52 -9 -19 -14 -42 -10 -51 5 -13 43 20 175 152 92 92 350 348 572 568 222 219 591 584 819 810 228 226 788 780 1244 1230 1078 1067 1176 1164 1176 1171 0 5 -236 240 -511 508 -90 88 -290 284 -444 436 -154 151 -365 358 -470 458 -104 101 -294 287 -421 413 -127 126 -235 229 -241 229 -6 0 -15 -6 -21 -12z"/> <path d="M8084 9987 c-122 -122 -529 -526 -904 -897 -729 -720 -913 -905 -919 -922 -2 -6 63 -76 145 -155 82 -79 248 -242 369 -361 356 -350 623 -611 1080 -1057 237 -231 540 -528 675 -660 135 -132 326 -319 425 -415 99 -96 232 -227 296 -290 64 -63 222 -218 350 -344 129 -127 330 -324 447 -439 157 -155 216 -207 224 -199 9 9 7 20 -4 44 -20 42 -38 94 -48 138 -4 19 -14 51 -20 70 -7 19 -18 51 -25 70 -7 19 -18 51 -24 70 -7 19 -16 49 -20 65 -4 17 -13 40 -19 52 -7 12 -12 29 -12 38 0 9 -6 31 -13 48 -8 18 -22 59 -31 92 -10 33 -24 75 -32 93 -8 18 -14 39 -14 47 0 8 -6 29 -14 47 -8 18 -30 83 -50 143 -37 117 -50 155 -95 285 -7 19 -16 49 -21 65 -8 28 -16 53 -45 135 -7 19 -21 62 -30 95 -10 33 -23 76 -30 95 -7 19 -18 51 -24 70 -7 19 -16 49 -20 65 -4 17 -13 40 -19 52 -7 12 -12 32 -12 45 0 13 -4 28 -9 33 -6 6 -14 28 -20 50 -5 22 -15 56 -22 75 -6 19 -17 51 -24 70 -7 19 -18 51 -24 70 -7 19 -16 49 -21 65 -8 28 -16 53 -45 135 -7 19 -21 62 -30 95 -10 33 -23 76 -30 95 -7 19 -18 51 -24 70 -7 19 -16 49 -21 65 -4 17 -12 41 -18 55 -5 14 -18 52 -27 85 -10 33 -23 76 -30 95 -7 19 -18 51 -24 70 -7 19 -16 49 -21 65 -5 17 -14 46 -21 65 -6 19 -17 51 -24 70 -7 19 -20 62 -30 95 -9 33 -23 76 -30 95 -14 41 -19 56 -84 250 -27 80 -83 253 -126 385 -43 132 -110 339 -150 460 -40 121 -107 328 -150 460 -43 132 -110 339 -150 460 -39 121 -89 274 -110 340 -46 144 -55 165 -69 165 -6 -1 -111 -101 -232 -223z"/> <path d="M5569 7497 c-338 -335 -1671 -1652 -2121 -2096 -99 -97 -178 -183 -178 -193 0 -17 114 -18 2705 -18 2664 0 2705 0 2705 19 0 11 -12 29 -27 41 -30 23 -242 230 -714 694 -168 166 -357 350 -420 411 -62 60 -254 247 -424 415 -577 568 -1107 1085 -1119 1092 -6 4 -15 8 -21 8 -5 0 -179 -168 -386 -373z"/> <path d="M3223 4783 c-17 -6 -3 -33 52 -98 23 -27 90 -115 150 -195 60 -80 142 -187 182 -237 40 -51 106 -135 146 -185 69 -88 244 -315 332 -433 79 -105 317 -412 406 -525 50 -63 152 -196 227 -295 74 -99 138 -182 142 -185 3 -3 44 -54 90 -115 105 -138 323 -418 330 -425 3 -3 18 -23 33 -46 15 -22 35 -49 45 -60 9 -10 30 -37 47 -59 16 -22 37 -49 47 -60 19 -22 132 -170 360 -470 84 -110 158 -206 164 -213 7 -7 55 -67 107 -135 138 -178 103 -163 319 -143 332 31 672 89 893 152 286 81 530 164 674 230 190 87 419 200 506 250 33 19 69 39 80 45 21 10 28 14 115 69 164 103 476 326 556 396 355 316 392 353 708 708 42 48 198 260 277 376 144 213 219 338 219 363 0 13 -228 241 -580 581 -107 103 -315 307 -461 452 l-267 264 -2943 -1 c-1619 0 -2950 -3 -2956 -6z"/> <path d="M2493 4457 c-132 -133 -398 -398 -590 -588 -191 -190 -356 -355 -366 -366 -17 -20 -17 -22 5 -62 89 -163 372 -572 474 -687 316 -355 353 -392 708 -708 80 -70 392 -293 556 -396 87 -55 94 -59 115 -69 11 -6 47 -26 80 -45 87 -50 316 -163 506 -250 144 -66 388 -149 674 -230 64 -19 268 -64 365 -82 199 -37 616 -86 636 -75 17 9 2 37 -61 116 -30 39 -124 160 -207 270 -84 110 -158 206 -165 213 -7 8 -55 68 -106 134 -127 165 -428 558 -539 703 -82 107 -222 286 -266 340 -10 11 -30 38 -47 60 -16 22 -37 49 -47 60 -16 19 -184 239 -405 530 -59 77 -118 154 -132 171 -28 33 -32 38 -182 233 -57 74 -155 200 -216 280 -62 80 -174 227 -250 326 -176 231 -261 337 -281 352 -15 10 -52 -23 -259 -230z"/> </g> </svg> 